<svg xmlns="http://www.w3.org/2000/svg" version="1.1" xmlns:xlink="http://www.w3.org/1999/xlink" viewBox="0 0 12.775703171120732 3.992479465983716"><g transform="matrix(1,0,0,1,3.391074950726654,0.7983533693554941)"><g clip-path="url(#SvgjsClipPath1001)"><g clip-path="url(#SvgjsClipPath100049880a59-c8f1-45b5-abc8-e1b8b989b617)"><path d=" M -2.5837423302997276 0.9038647423930506 L -2.5837423302997276 2.619241972469939 L -2.8161908265683704 2.619241972469939 L -2.8161908265683704 1.051458308814329 Z" fill="#404040" transform="matrix(1,0,0,1,0,0)" fill-rule="nonzero"></path></g><g clip-path="url(#SvgjsClipPath100049880a59-c8f1-45b5-abc8-e1b8b989b617)"><path d=" M -0.8683651002228392 0.24722687822411582 L -1.1008135964914827 0.09963331180283735 L -1.608663955527719 -0.2234692451972109 L -2.3478257263455307 0.24722687822411582 L -2.3478257263455307 0.35181022392209016 L -2.3478257263455307 0.522657168103886 L -2.3478257263455307 2.2473300638625453 L -0.8683651002228392 2.2473300638625453 L -0.8683651002228392 1.030535954252299 L -0.8683651002228392 0.7551056643725288 L -1.1008135964914827 0.6074836708390736 L -1.608663955527719 0.2844095409512021 L -1.8794606261226914 0.45642199673224126 L -1.8794606261226914 0.733017798211255 L -1.608663955527719 0.5598398308309723 L -1.1008135964914827 0.8829423878310203 L -1.1008135964914827 2.0149099947060796 L -2.115405657189065 2.0149099947060796 L -2.115405657189065 0.37506360168260755 L -1.608663955527719 0.05196104468255924 L -1.1008135964914827 0.37506360168260755 L -0.8683651002228392 0.522657168103886 L -0.6324484962686427 0.6725817577236513 L -0.6324484962686427 2.6191566911334094 L -0.3999999999999999 2.6191566911334094 L -0.3999999999999999 0.5447450342651596 Z" fill="#404040" transform="matrix(1,0,0,1,0,0)" fill-rule="nonzero"></path></g><g clip-path="url(#SvgjsClipPath100049880a59-c8f1-45b5-abc8-e1b8b989b617)"><path d=" M -2.3478257263455307 2.3867081948647657 L -0.8683651002228392 2.3867081948647657 L -0.8683651002228392 2.6191566911334094 L -2.3478257263455307 2.6191566911334094 Z" fill="#4e888f" transform="matrix(1,0,0,1,0,0)" fill-rule="nonzero"></path></g></g><g><path d=" M 0.252 1.0304999999999997 L 0.618 1.0304999999999997 L 0.618 1.1414999999999997 L 0.1155 1.1414999999999997 L 0.1155 0.09599999999999964 L 0.252 0.09599999999999964 L 0.252 1.0304999999999997 M 0.7680102539062501 0.1589999999999997 Q 0.7410102539062501 0.13199999999999967 0.7410102539062501 0.09299999999999975 Q 0.7410102539062501 0.053999999999999604 0.7680102539062501 0.02699999999999969 Q 0.7950102539062501 -2.220446049250313e-16 0.8340102539062502 -2.220446049250313e-16 Q 0.8715102539062501 -2.220446049250313e-16 0.8977602539062501 0.02699999999999969 Q 0.9240102539062501 0.053999999999999604 0.9240102539062501 0.09299999999999975 Q 0.9240102539062501 0.13199999999999967 0.8977602539062501 0.1589999999999997 Q 0.8715102539062501 0.18599999999999972 0.8340102539062502 0.18599999999999972 Q 0.7950102539062501 0.18599999999999972 0.7680102539062501 0.1589999999999997 M 0.9000102539062501 0.3194999999999997 L 0.9000102539062501 1.1414999999999997 L 0.7635102539062502 1.1414999999999997 L 0.7635102539062502 0.3194999999999997 L 0.9000102539062501 0.3194999999999997 M 1.4384677734375002 1.0154999999999998 L 1.6934677734375003 0.3194999999999997 L 1.8389677734375003 0.3194999999999997 L 1.5164677734375003 1.1414999999999997 L 1.3574677734375002 1.1414999999999997 L 1.0349677734375002 0.3194999999999997 L 1.1819677734375003 0.3194999999999997 L 1.4384677734375002 1.0154999999999998 M 1.978428955078125 0.1589999999999997 Q 1.9514289550781252 0.13199999999999967 1.9514289550781252 0.09299999999999975 Q 1.9514289550781252 0.053999999999999604 1.978428955078125 0.02699999999999969 Q 2.0054289550781252 -2.220446049250313e-16 2.0444289550781254 -2.220446049250313e-16 Q 2.081928955078125 -2.220446049250313e-16 2.108178955078125 0.02699999999999969 Q 2.1344289550781252 0.053999999999999604 2.1344289550781252 0.09299999999999975 Q 2.1344289550781252 0.13199999999999967 2.108178955078125 0.1589999999999997 Q 2.081928955078125 0.18599999999999972 2.0444289550781254 0.18599999999999972 Q 2.0054289550781252 0.18599999999999972 1.978428955078125 0.1589999999999997 M 2.1104289550781252 0.3194999999999997 L 2.1104289550781252 1.1414999999999997 L 1.9739289550781252 1.1414999999999997 L 1.9739289550781252 0.3194999999999997 L 2.1104289550781252 0.3194999999999997 M 2.9863864746093753 0.39524999999999977 Q 3.0793864746093753 0.48599999999999977 3.0793864746093753 0.6569999999999998 L 3.0793864746093753 1.1414999999999997 L 2.9443864746093755 1.1414999999999997 L 2.9443864746093755 0.6764999999999997 Q 2.9443864746093755 0.5534999999999998 2.8828864746093754 0.48824999999999974 Q 2.8213864746093753 0.4229999999999997 2.7148864746093753 0.4229999999999997 Q 2.6068864746093756 0.4229999999999997 2.5431364746093754 0.4904999999999997 Q 2.4793864746093757 0.5579999999999997 2.4793864746093757 0.6869999999999997 L 2.4793864746093757 1.1414999999999997 L 2.3428864746093754 1.1414999999999997 L 2.3428864746093754 0.3194999999999997 L 2.4793864746093757 0.3194999999999997 L 2.4793864746093757 0.4364999999999998 Q 2.5198864746093754 0.3734999999999997 2.5896364746093754 0.33899999999999975 Q 2.6593864746093754 0.30449999999999977 2.7433864746093755 0.30449999999999977 Q 2.8933864746093754 0.30449999999999977 2.9863864746093753 0.39524999999999977 M 3.8286584472656253 0.3524999999999997 Q 3.9089084472656257 0.3989999999999997 3.9479084472656254 0.4694999999999997 L 3.9479084472656254 0.3194999999999997 L 4.085908447265625 0.3194999999999997 L 4.085908447265625 1.1594999999999998 Q 4.085908447265625 1.2719999999999998 4.037908447265625 1.3597499999999998 Q 3.989908447265625 1.4474999999999998 3.9006584472656254 1.4969999999999997 Q 3.8114084472656256 1.5464999999999998 3.6929084472656255 1.5464999999999998 Q 3.5309084472656256 1.5464999999999998 3.4229084472656255 1.4699999999999998 Q 3.3149084472656254 1.3934999999999997 3.2954084472656255 1.2614999999999998 L 3.4304084472656253 1.2614999999999998 Q 3.4529084472656253 1.3364999999999998 3.5234084472656253 1.3822499999999998 Q 3.5939084472656253 1.4279999999999997 3.6929084472656255 1.4279999999999997 Q 3.8054084472656253 1.4279999999999997 3.8766584472656254 1.3574999999999997 Q 3.9479084472656254 1.2869999999999997 3.9479084472656254 1.1594999999999998 L 3.9479084472656254 0.9869999999999998 Q 3.9074084472656256 1.0589999999999997 3.8279084472656253 1.1069999999999998 Q 3.7484084472656254 1.1549999999999998 3.6419084472656253 1.1549999999999998 Q 3.5324084472656256 1.1549999999999998 3.4431584472656254 1.1009999999999998 Q 3.3539084472656255 1.0469999999999997 3.3029084472656254 0.9494999999999998 Q 3.2519084472656257 0.8519999999999998 3.2519084472656257 0.7274999999999997 Q 3.2519084472656257 0.6014999999999997 3.3029084472656254 0.5062499999999998 Q 3.3539084472656255 0.4109999999999997 3.4431584472656254 0.3584999999999997 Q 3.5324084472656256 0.3059999999999997 3.6419084472656253 0.3059999999999997 Q 3.7484084472656254 0.3059999999999997 3.8286584472656253 0.3524999999999997 M 3.9104084472656253 0.5669999999999997 Q 3.872908447265625 0.4979999999999998 3.8091584472656255 0.4612499999999997 Q 3.7454084472656257 0.42449999999999977 3.6689084472656255 0.42449999999999977 Q 3.5924084472656252 0.42449999999999977 3.5294084472656255 0.4604999999999997 Q 3.4664084472656254 0.4964999999999997 3.4289084472656253 0.5654999999999997 Q 3.3914084472656256 0.6344999999999997 3.3914084472656256 0.7274999999999997 Q 3.3914084472656256 0.8219999999999997 3.4289084472656253 0.8917499999999997 Q 3.4664084472656254 0.9614999999999998 3.5294084472656255 0.9982499999999997 Q 3.5924084472656252 1.0349999999999997 3.6689084472656255 1.0349999999999997 Q 3.7454084472656257 1.0349999999999997 3.8091584472656255 0.9982499999999997 Q 3.872908447265625 0.9614999999999998 3.9104084472656253 0.8917499999999997 Q 3.9479084472656254 0.8219999999999997 3.9479084472656254 0.7289999999999996 Q 3.9479084472656254 0.6359999999999997 3.9104084472656253 0.5669999999999997 M 4.85398974609375 1.0304999999999997 L 5.21998974609375 1.0304999999999997 L 5.21998974609375 1.1414999999999997 L 4.71748974609375 1.1414999999999997 L 4.71748974609375 0.09599999999999964 L 4.85398974609375 0.09599999999999964 L 4.85398974609375 1.0304999999999997 M 6.0945 0.3194999999999997 L 6.0945 1.1414999999999997 L 5.958 1.1414999999999997 L 5.958 1.0199999999999998 Q 5.9190000000000005 1.0829999999999997 5.84925 1.1182499999999997 Q 5.7795 1.1534999999999997 5.6955 1.1534999999999997 Q 5.5995 1.1534999999999997 5.523 1.1137499999999998 Q 5.4465 1.0739999999999998 5.40225 0.9944999999999997 Q 5.358 0.9149999999999997 5.358 0.8009999999999997 L 5.358 0.3194999999999997 L 5.493 0.3194999999999997 L 5.493 0.7829999999999997 Q 5.493 0.9044999999999997 5.5545 0.9697499999999997 Q 5.616 1.0349999999999997 5.7225 1.0349999999999997 Q 5.832 1.0349999999999997 5.895 0.9674999999999997 Q 5.958 0.8999999999999997 5.958 0.7709999999999997 L 5.958 0.3194999999999997 L 6.0945 0.3194999999999997 M 6.75452197265625 1.1414999999999997 L 6.55952197265625 0.8354999999999997 L 6.37202197265625 1.1414999999999997 L 6.22952197265625 1.1414999999999997 L 6.49502197265625 0.7334999999999997 L 6.22952197265625 0.3194999999999997 L 6.38402197265625 0.3194999999999997 L 6.57902197265625 0.6239999999999998 L 6.76502197265625 0.3194999999999997 L 6.90752197265625 0.3194999999999997 L 6.64352197265625 0.7259999999999998 L 6.90902197265625 1.1414999999999997 L 6.75452197265625 1.1414999999999997 M 7.78952783203125 0.7814999999999998 L 7.13252783203125 0.7814999999999998 Q 7.14002783203125 0.9029999999999997 7.21577783203125 0.9712499999999997 Q 7.2915278320312495 1.0394999999999996 7.39952783203125 1.0394999999999996 Q 7.48802783203125 1.0394999999999996 7.54727783203125 0.9982499999999997 Q 7.60652783203125 0.9569999999999997 7.63052783203125 0.8879999999999997 L 7.77752783203125 0.8879999999999997 Q 7.74452783203125 1.0064999999999997 7.64552783203125 1.0807499999999997 Q 7.54652783203125 1.1549999999999998 7.39952783203125 1.1549999999999998 Q 7.28252783203125 1.1549999999999998 7.19027783203125 1.1024999999999998 Q 7.09802783203125 1.0499999999999998 7.04552783203125 0.9532499999999997 Q 6.99302783203125 0.8564999999999997 6.99302783203125 0.7289999999999996 Q 6.99302783203125 0.6014999999999997 7.04402783203125 0.5054999999999997 Q 7.09502783203125 0.40949999999999975 7.18727783203125 0.3577499999999997 Q 7.27952783203125 0.3059999999999997 7.39952783203125 0.3059999999999997 Q 7.51652783203125 0.3059999999999997 7.60652783203125 0.35699999999999976 Q 7.69652783203125 0.4079999999999997 7.74527783203125 0.49724999999999975 Q 7.79402783203125 0.5864999999999997 7.79402783203125 0.6989999999999997 Q 7.79402783203125 0.7379999999999998 7.78952783203125 0.7814999999999998 M 7.61852783203125 0.5362499999999997 Q 7.58402783203125 0.47999999999999976 7.52477783203125 0.45074999999999976 Q 7.46552783203125 0.42149999999999976 7.39352783203125 0.42149999999999976 Q 7.29002783203125 0.42149999999999976 7.21727783203125 0.4874999999999997 Q 7.14452783203125 0.5534999999999998 7.13402783203125 0.6704999999999997 L 7.65302783203125 0.6704999999999997 Q 7.65302783203125 0.5924999999999997 7.61852783203125 0.5362499999999997" fill="#404040" fill-rule="nonzero"></path></g><g><path d=" M 0.1793181818181818 2.395772727272728 Q 0.1725 2.395772727272728 0.1680681818181818 2.3913409090909097 Q 0.16363636363636364 2.3869090909090915 0.16363636363636364 2.3800909090909097 L 0.16363636363636364 1.9791818181818188 L 0.03272727272727272 1.9791818181818188 Q 0.025909090909090906 1.9791818181818188 0.021477272727272727 1.9747500000000007 Q 0.017045454545454544 1.9703181818181825 0.017045454545454544 1.9635000000000007 L 0.017045454545454544 1.934863636363637 Q 0.017045454545454544 1.927363636363637 0.021477272727272727 1.922931818181819 Q 0.025909090909090906 1.9185000000000005 0.03272727272727272 1.9185000000000005 L 0.36136363636363633 1.9185000000000005 Q 0.36886363636363634 1.9185000000000005 0.37329545454545454 1.922931818181819 Q 0.3777272727272727 1.927363636363637 0.3777272727272727 1.934863636363637 L 0.3777272727272727 1.9635000000000007 Q 0.3777272727272727 1.9703181818181825 0.37329545454545454 1.9747500000000007 Q 0.36886363636363634 1.9791818181818188 0.36136363636363633 1.9791818181818188 L 0.2311363636363636 1.9791818181818188 L 0.2311363636363636 2.3800909090909097 Q 0.2311363636363636 2.3869090909090915 0.22670454545454544 2.3913409090909097 Q 0.22227272727272726 2.395772727272728 0.21477272727272725 2.395772727272728 L 0.1793181818181818 2.395772727272728 M 0.5239516379616477 2.4025909090909097 Q 0.480315274325284 2.4025909090909097 0.44997436523437495 2.3831590909090914 Q 0.4196334561434658 2.363727272727273 0.4039516379616477 2.328954545454546 Q 0.3882698197798295 2.2941818181818188 0.3882698197798295 2.249181818181819 L 0.3882698197798295 2.0569090909090915 Q 0.3882698197798295 2.0500909090909096 0.39270163796164764 2.0456590909090915 Q 0.39713345614346585 2.0412272727272733 0.4039516379616477 2.0412272727272733 L 0.43804254705255674 2.0412272727272733 Q 0.4448607288707386 2.0412272727272733 0.4492925470525567 2.0456590909090915 Q 0.4537243652343749 2.0500909090909096 0.4537243652343749 2.0569090909090915 L 0.4537243652343749 2.245772727272728 Q 0.4537243652343749 2.347363636363637 0.5423607288707386 2.347363636363637 Q 0.5846334561434658 2.347363636363637 0.6102016379616477 2.320431818181819 Q 0.6357698197798294 2.2935000000000008 0.6357698197798294 2.245772727272728 L 0.6357698197798294 2.0569090909090915 Q 0.6357698197798294 2.0500909090909096 0.6402016379616476 2.0456590909090915 Q 0.6446334561434659 2.0412272727272733 0.6514516379616476 2.0412272727272733 L 0.6855425470525567 2.0412272727272733 Q 0.6923607288707385 2.0412272727272733 0.6964516379616477 2.0456590909090915 Q 0.7005425470525568 2.0500909090909096 0.7005425470525568 2.0569090909090915 L 0.7005425470525568 2.3800909090909097 Q 0.7005425470525568 2.3869090909090915 0.6964516379616477 2.3913409090909097 Q 0.6923607288707385 2.395772727272728 0.6855425470525567 2.395772727272728 L 0.6534970925071022 2.395772727272728 Q 0.6466789106889204 2.395772727272728 0.6422470925071022 2.3913409090909097 Q 0.6378152743252841 2.3869090909090915 0.6378152743252841 2.3800909090909097 L 0.6378152743252841 2.3500909090909095 Q 0.619406183416193 2.373954545454546 0.5931561834161931 2.388272727272728 Q 0.566906183416193 2.4025909090909097 0.5239516379616477 2.4025909090909097 M 0.8188310102982954 2.395772727272728 Q 0.8120128284801136 2.395772727272728 0.8075810102982954 2.3913409090909097 Q 0.8031491921164772 2.3869090909090915 0.8031491921164772 2.3800909090909097 L 0.8031491921164772 2.0575909090909095 Q 0.8031491921164772 2.0507727272727276 0.8075810102982954 2.0460000000000007 Q 0.8120128284801136 2.0412272727272733 0.8188310102982954 2.0412272727272733 L 0.8501946466619318 2.0412272727272733 Q 0.8570128284801135 2.0412272727272733 0.8617855557528409 2.0460000000000007 Q 0.8665582830255681 2.0507727272727276 0.8665582830255681 2.0575909090909095 L 0.8665582830255681 2.0875909090909097 Q 0.8801946466619317 2.0644090909090913 0.9040582830255681 2.0528181818181825 Q 0.9279219193892044 2.0412272727272733 0.9620128284801135 2.0412272727272733 L 0.9886037375710226 2.0412272727272733 Q 0.9954219193892044 2.0412272727272733 0.9998537375710226 2.0456590909090915 Q 1.004285555752841 2.0500909090909096 1.004285555752841 2.0569090909090915 L 1.004285555752841 2.084863636363637 Q 1.004285555752841 2.0916818181818186 0.9998537375710226 2.095772727272728 Q 0.9954219193892044 2.099863636363637 0.9886037375710226 2.099863636363637 L 0.9476946466619317 2.099863636363637 Q 0.91087646484375 2.099863636363637 0.8897401012073862 2.1213409090909097 Q 0.8686037375710227 2.1428181818181824 0.8686037375710227 2.179636363636364 L 0.8686037375710227 2.3800909090909097 Q 0.8686037375710227 2.3869090909090915 0.8638310102982953 2.3913409090909097 Q 0.8590582830255681 2.395772727272728 0.8522401012073862 2.395772727272728 L 0.8188310102982954 2.395772727272728 M 1.0789479758522726 2.395772727272728 Q 1.0721297940340908 2.395772727272728 1.0676979758522727 2.3913409090909097 Q 1.0632661576704545 2.3869090909090915 1.0632661576704545 2.3800909090909097 L 1.0632661576704545 2.0569090909090915 Q 1.0632661576704545 2.0500909090909096 1.0676979758522727 2.0456590909090915 Q 1.0721297940340908 2.0412272727272733 1.0789479758522726 2.0412272727272733 L 1.1109934303977271 2.0412272727272733 Q 1.117811612215909 2.0412272727272733 1.1222434303977271 2.0456590909090915 Q 1.1266752485795453 2.0500909090909096 1.1266752485795453 2.0569090909090915 L 1.1266752485795453 2.0869090909090913 Q 1.144402521306818 2.0637272727272733 1.1713343394886362 2.0490681818181824 Q 1.1982661576704543 2.0344090909090915 1.2405388849431818 2.0344090909090915 Q 1.2848570667613635 2.0344090909090915 1.3158797940340907 2.0538409090909098 Q 1.346902521306818 2.073272727272728 1.3629252485795453 2.107704545454546 Q 1.3789479758522725 2.1421363636363644 1.3789479758522725 2.1878181818181823 L 1.3789479758522725 2.3800909090909097 Q 1.3789479758522725 2.3869090909090915 1.3745161576704543 2.3913409090909097 Q 1.3700843394886362 2.395772727272728 1.3632661576704543 2.395772727272728 L 1.3291752485795454 2.395772727272728 Q 1.3223570667613636 2.395772727272728 1.3179252485795454 2.3913409090909097 Q 1.313493430397727 2.3869090909090915 1.313493430397727 2.3800909090909097 L 1.313493430397727 2.1912272727272732 Q 1.313493430397727 2.1435000000000004 1.290311612215909 2.1165681818181823 Q 1.2671297940340907 2.089636363636364 1.2221297940340907 2.089636363636364 Q 1.1798570667613635 2.089636363636364 1.1542888849431816 2.1165681818181823 Q 1.128720703125 2.1435000000000004 1.128720703125 2.1912272727272732 L 1.128720703125 2.3800909090909097 Q 1.128720703125 2.3869090909090915 1.1242888849431818 2.3913409090909097 Q 1.1198570667613634 2.395772727272728 1.1130388849431818 2.395772727272728 L 1.0789479758522726 2.395772727272728 M 1.4931648393110795 2.395772727272728 Q 1.4863466574928976 2.395772727272728 1.4819148393110795 2.3913409090909097 Q 1.4774830211292613 2.3869090909090915 1.4774830211292613 2.3800909090909097 L 1.4774830211292613 2.0569090909090915 Q 1.4774830211292613 2.0500909090909096 1.4819148393110795 2.0456590909090915 Q 1.4863466574928976 2.0412272727272733 1.4931648393110795 2.0412272727272733 L 1.5258921120383522 2.0412272727272733 Q 1.532710293856534 2.0412272727272733 1.5371421120383522 2.0456590909090915 Q 1.5415739302201703 2.0500909090909096 1.5415739302201703 2.0569090909090915 L 1.5415739302201703 2.3800909090909097 Q 1.5415739302201703 2.3869090909090915 1.5371421120383522 2.3913409090909097 Q 1.532710293856534 2.395772727272728 1.5258921120383522 2.395772727272728 L 1.4931648393110795 2.395772727272728 M 1.487710293856534 1.9750909090909097 Q 1.4808921120383522 1.9750909090909097 1.4764602938565339 1.9706590909090915 Q 1.4720284756747157 1.9662272727272734 1.4720284756747157 1.9594090909090915 L 1.4720284756747157 1.9225909090909097 Q 1.4720284756747157 1.9157727272727278 1.4764602938565339 1.9110000000000005 Q 1.4808921120383522 1.9062272727272733 1.487710293856534 1.9062272727272733 L 1.5306648393110793 1.9062272727272733 Q 1.5374830211292612 1.9062272727272733 1.5422557484019885 1.9110000000000005 Q 1.5470284756747157 1.9157727272727278 1.5470284756747157 1.9225909090909097 L 1.5470284756747157 1.9594090909090915 Q 1.5470284756747157 1.9662272727272734 1.5422557484019885 1.9706590909090915 Q 1.5374830211292612 1.9750909090909097 1.5306648393110793 1.9750909090909097 L 1.487710293856534 1.9750909090909097 M 1.665307950106534 2.395772727272728 Q 1.6584897682883522 2.395772727272728 1.654057950106534 2.3913409090909097 Q 1.6496261319247159 2.3869090909090915 1.6496261319247159 2.3800909090909097 L 1.6496261319247159 2.0569090909090915 Q 1.6496261319247159 2.0500909090909096 1.654057950106534 2.0456590909090915 Q 1.6584897682883522 2.0412272727272733 1.665307950106534 2.0412272727272733 L 1.6973534046519885 2.0412272727272733 Q 1.7041715864701703 2.0412272727272733 1.7086034046519885 2.0456590909090915 Q 1.7130352228338066 2.0500909090909096 1.7130352228338066 2.0569090909090915 L 1.7130352228338066 2.0869090909090913 Q 1.7307624955610794 2.0637272727272733 1.7576943137428975 2.0490681818181824 Q 1.7846261319247159 2.0344090909090915 1.826898859197443 2.0344090909090915 Q 1.8712170410156248 2.0344090909090915 1.902239768288352 2.0538409090909098 Q 1.9332624955610793 2.073272727272728 1.9492852228338067 2.107704545454546 Q 1.965307950106534 2.1421363636363644 1.965307950106534 2.1878181818181823 L 1.965307950106534 2.3800909090909097 Q 1.965307950106534 2.3869090909090915 1.9608761319247159 2.3913409090909097 Q 1.9564443137428975 2.395772727272728 1.9496261319247157 2.395772727272728 L 1.9155352228338067 2.395772727272728 Q 1.908717041015625 2.395772727272728 1.9042852228338067 2.3913409090909097 Q 1.8998534046519886 2.3869090909090915 1.8998534046519886 2.3800909090909097 L 1.8998534046519886 2.1912272727272732 Q 1.8998534046519886 2.1435000000000004 1.8766715864701702 2.1165681818181823 Q 1.8534897682883522 2.089636363636364 1.808489768288352 2.089636363636364 Q 1.7662170410156248 2.089636363636364 1.7406488591974432 2.1165681818181823 Q 1.7150806773792613 2.1435000000000004 1.7150806773792613 2.1912272727272732 L 1.7150806773792613 2.3800909090909097 Q 1.7150806773792613 2.3869090909090915 1.7106488591974431 2.3913409090909097 Q 1.7062170410156248 2.395772727272728 1.699398859197443 2.395772727272728 L 1.665307950106534 2.395772727272728 M 2.2090702681107954 2.5457727272727277 Q 2.162706631747159 2.5457727272727277 2.133047540838068 2.5335000000000005 Q 2.103388449928977 2.5212272727272733 2.0866839044744316 2.5038409090909095 Q 2.0699793590198863 2.486454545454546 2.062820268110795 2.4690681818181823 Q 2.0556611772017046 2.4516818181818185 2.054979359019886 2.441454545454546 Q 2.054297540838068 2.4346363636363644 2.0594111772017043 2.429863636363637 Q 2.064524813565341 2.4250909090909096 2.0706611772017043 2.4250909090909096 L 2.103388449928977 2.4250909090909096 Q 2.109524813565341 2.4250909090909096 2.1136157226562498 2.4278181818181825 Q 2.117706631747159 2.430545454545455 2.1204339044744316 2.4394090909090913 Q 2.124524813565341 2.449636363636364 2.132706631747159 2.4622500000000005 Q 2.140888449928977 2.474863636363637 2.1579339044744317 2.4840681818181825 Q 2.1749793590198863 2.493272727272728 2.2056611772017045 2.493272727272728 Q 2.237706631747159 2.493272727272728 2.2595248135653407 2.4844090909090912 Q 2.2813429953835227 2.475545454545455 2.2925929953835227 2.4544090909090914 Q 2.3038429953835227 2.433272727272728 2.3038429953835227 2.395772727272728 L 2.3038429953835227 2.3494090909090914 Q 2.287479359019886 2.370545454545455 2.260888449928977 2.384522727272728 Q 2.234297540838068 2.3985000000000007 2.1940702681107953 2.3985000000000007 Q 2.155888449928977 2.3985000000000007 2.12861572265625 2.385204545454546 Q 2.1013429953835225 2.3719090909090914 2.083956631747159 2.349068181818182 Q 2.0665702681107954 2.3262272727272735 2.058047540838068 2.2969090909090917 Q 2.0495248135653408 2.2675909090909094 2.0481611772017043 2.235545454545455 Q 2.0474793590198863 2.216454545454546 2.0481611772017043 2.198045454545455 Q 2.0495248135653408 2.1660000000000004 2.058047540838068 2.1366818181818186 Q 2.0665702681107954 2.1073636363636368 2.083956631747159 2.084181818181819 Q 2.1013429953835225 2.061000000000001 2.12861572265625 2.047704545454546 Q 2.155888449928977 2.0344090909090915 2.1940702681107953 2.0344090909090915 Q 2.2349793590198863 2.0344090909090915 2.2619111772017044 2.0494090909090916 Q 2.2888429953835225 2.0644090909090913 2.305888449928977 2.0869090909090913 L 2.305888449928977 2.0575909090909095 Q 2.305888449928977 2.0507727272727276 2.3103202681107953 2.0460000000000007 Q 2.3147520862926134 2.0412272727272733 2.3215702681107953 2.0412272727272733 L 2.3529339044744315 2.0412272727272733 Q 2.3597520862926133 2.0412272727272733 2.3645248135653407 2.0460000000000007 Q 2.369297540838068 2.0507727272727276 2.369297540838068 2.0575909090909095 L 2.369297540838068 2.388272727272728 Q 2.369297540838068 2.433954545454546 2.3539566317471587 2.4694090909090916 Q 2.33861572265625 2.5048636363636367 2.3035020862926134 2.5253181818181822 Q 2.268388449928977 2.5457727272727277 2.2090702681107954 2.5457727272727277 M 2.207706631747159 2.343954545454546 Q 2.241797540838068 2.343954545454546 2.2625929953835224 2.328272727272728 Q 2.283388449928977 2.31259090909091 2.2932748135653407 2.2887272727272734 Q 2.303161177201704 2.264863636363637 2.3038429953835227 2.2403181818181825 Q 2.3045248135653407 2.230772727272728 2.3045248135653407 2.216795454545455 Q 2.3045248135653407 2.2028181818181825 2.3038429953835227 2.1932727272727277 Q 2.303161177201704 2.1687272727272733 2.2932748135653407 2.144863636363637 Q 2.283388449928977 2.1210000000000004 2.2625929953835224 2.1053181818181823 Q 2.241797540838068 2.089636363636364 2.207706631747159 2.089636363636364 Q 2.17361572265625 2.089636363636364 2.1531611772017043 2.1049772727272735 Q 2.132706631747159 2.1203181818181824 2.1238429953835225 2.145204545454546 Q 2.114979359019886 2.1700909090909097 2.1136157226562498 2.1987272727272735 Q 2.1129339044744317 2.216454545454546 2.1136157226562498 2.234863636363637 Q 2.114979359019886 2.2635000000000005 2.1238429953835225 2.288386363636364 Q 2.132706631747159 2.313272727272728 2.1531611772017043 2.3286136363636367 Q 2.17361572265625 2.343954545454546 2.207706631747159 2.343954545454546 M 2.6645111638849435 2.395772727272728 Q 2.657011163884943 2.395772727272728 2.6529202547940343 2.3913409090909097 Q 2.648829345703125 2.3869090909090915 2.648829345703125 2.3800909090909097 L 2.648829345703125 1.934863636363637 Q 2.648829345703125 1.927363636363637 2.6529202547940343 1.922931818181819 Q 2.657011163884943 1.9185000000000005 2.6645111638849435 1.9185000000000005 L 2.8192838911576708 1.9185000000000005 Q 2.889511163884943 1.9185000000000005 2.9324657093394886 1.9396363636363643 Q 2.975420254794034 1.9607727272727278 2.9951929820667615 2.002022727272728 Q 3.0149657093394886 2.043272727272728 3.015647527521307 2.103272727272728 Q 3.016329345703125 2.133954545454546 3.016329345703125 2.157136363636364 Q 3.016329345703125 2.1803181818181825 3.015647527521307 2.2103181818181823 Q 3.0142838911576706 2.2730454545454553 2.9948520729758523 2.314295454545455 Q 2.975420254794034 2.3555454545454553 2.933488436612216 2.3756590909090916 Q 2.891556618430398 2.395772727272728 2.8226929820667612 2.395772727272728 L 2.6645111638849435 2.395772727272728 M 2.715647527521307 2.3378181818181822 L 2.8192838911576708 2.3378181818181822 Q 2.866329345703125 2.3378181818181822 2.8942838911576705 2.324863636363637 Q 2.922238436612216 2.3119090909090914 2.9348520729758523 2.283272727272728 Q 2.9474657093394887 2.254636363636364 2.9481475275213067 2.20759090909091 Q 2.949511163884943 2.1871363636363643 2.949511163884943 2.171795454545455 Q 2.949511163884943 2.156454545454546 2.949511163884943 2.141113636363637 Q 2.949511163884943 2.125772727272728 2.9481475275213067 2.1060000000000008 Q 2.9467838911576707 2.039863636363637 2.9167838911576704 2.0081590909090914 Q 2.8867838911576706 1.976454545454546 2.81587480024858 1.976454545454546 L 2.715647527521307 1.976454545454546 L 2.715647527521307 2.3378181818181822 M 3.126460626775568 2.395772727272728 Q 3.1196424449573863 2.395772727272728 3.115210626775568 2.3913409090909097 Q 3.11077880859375 2.3869090909090915 3.11077880859375 2.3800909090909097 L 3.11077880859375 2.0575909090909095 Q 3.11077880859375 2.0507727272727276 3.115210626775568 2.0460000000000007 Q 3.1196424449573863 2.0412272727272733 3.126460626775568 2.0412272727272733 L 3.157824263139205 2.0412272727272733 Q 3.1646424449573867 2.0412272727272733 3.1694151722301136 2.0460000000000007 Q 3.174187899502841 2.0507727272727276 3.174187899502841 2.0575909090909095 L 3.174187899502841 2.0875909090909097 Q 3.1878242631392046 2.0644090909090913 3.211687899502841 2.0528181818181825 Q 3.2355515358664775 2.0412272727272733 3.2696424449573867 2.0412272727272733 L 3.2962333540482955 2.0412272727272733 Q 3.3030515358664774 2.0412272727272733 3.3074833540482955 2.0456590909090915 Q 3.3119151722301137 2.0500909090909096 3.3119151722301137 2.0569090909090915 L 3.3119151722301137 2.084863636363637 Q 3.3119151722301137 2.0916818181818186 3.3074833540482955 2.095772727272728 Q 3.3030515358664774 2.099863636363637 3.2962333540482955 2.099863636363637 L 3.2553242631392045 2.099863636363637 Q 3.218506081321023 2.099863636363637 3.1973697176846594 2.1213409090909097 Q 3.1762333540482954 2.1428181818181824 3.1762333540482954 2.179636363636364 L 3.1762333540482954 2.3800909090909097 Q 3.1762333540482954 2.3869090909090915 3.1714606267755685 2.3913409090909097 Q 3.166687899502841 2.395772727272728 3.1598697176846593 2.395772727272728 L 3.126460626775568 2.395772727272728 M 3.5058891157670455 2.4025909090909097 Q 3.4349800248579547 2.4025909090909097 3.3933891157670453 2.359295454545455 Q 3.3517982066761363 2.3160000000000007 3.3477072975852273 2.2410000000000005 Q 3.347025479403409 2.2321363636363643 3.347025479403409 2.2181590909090914 Q 3.347025479403409 2.204181818181819 3.3477072975852273 2.195318181818182 Q 3.3504345703125 2.1469090909090913 3.3702072975852273 2.110431818181819 Q 3.3899800248579544 2.073954545454546 3.4244118430397728 2.054181818181819 Q 3.4588436612215907 2.0344090909090915 3.505207297585227 2.0344090909090915 Q 3.557025479403409 2.0344090909090915 3.5921391157670453 2.0562272727272735 Q 3.6272527521306817 2.078045454545455 3.6456618430397727 2.118272727272728 Q 3.6640709339488637 2.1585000000000005 3.6640709339488637 2.2123636363636368 L 3.6640709339488637 2.223954545454546 Q 3.6640709339488637 2.231454545454546 3.6596391157670456 2.235545454545455 Q 3.6552072975852274 2.239636363636364 3.6483891157670456 2.239636363636364 L 3.4124800248579543 2.239636363636364 Q 3.4124800248579543 2.2403181818181825 3.4124800248579543 2.242363636363637 Q 3.4124800248579543 2.2444090909090915 3.4124800248579543 2.245772727272728 Q 3.4138436612215908 2.2737272727272733 3.424752752130682 2.297931818181819 Q 3.4356618430397727 2.322136363636364 3.456457297585227 2.3371363636363642 Q 3.4772527521306817 2.3521363636363644 3.505207297585227 2.3521363636363644 Q 3.529752752130682 2.3521363636363644 3.546116388494318 2.344636363636364 Q 3.5624800248579547 2.3371363636363642 3.5727072975852274 2.3279318181818187 Q 3.5829345703125 2.318727272727273 3.5863436612215907 2.313272727272728 Q 3.5924800248579545 2.3050909090909095 3.5958891157670454 2.3033863636363643 Q 3.5992982066761363 2.3016818181818186 3.606798206676136 2.3016818181818186 L 3.6402072975852273 2.3016818181818186 Q 3.6463436612215907 2.3016818181818186 3.650775479403409 2.3054318181818187 Q 3.6552072975852274 2.309181818181819 3.654525479403409 2.3160000000000007 Q 3.653843661221591 2.3262272727272735 3.6436163884943182 2.3408863636363644 Q 3.6333891157670455 2.3555454545454553 3.614639115767045 2.369863636363637 Q 3.5958891157670454 2.3841818181818186 3.5682754794034093 2.393386363636364 Q 3.5406618430397727 2.4025909090909097 3.5058891157670455 2.4025909090909097 M 3.4124800248579543 2.1925909090909097 L 3.5992982066761363 2.1925909090909097 L 3.5992982066761363 2.1905454545454552 Q 3.5992982066761363 2.159863636363637 3.5880482066761363 2.1360000000000006 Q 3.5767982066761363 2.112136363636364 3.555661843039773 2.0981590909090917 Q 3.534525479403409 2.084181818181819 3.505207297585227 2.084181818181819 Q 3.4758891157670453 2.084181818181819 3.455093661221591 2.0981590909090917 Q 3.4342982066761363 2.112136363636364 3.4233891157670455 2.1360000000000006 Q 3.4124800248579543 2.159863636363637 3.4124800248579543 2.1905454545454552 L 3.4124800248579543 2.1925909090909097 M 3.8457738148082385 2.4025909090909097 Q 3.8116829057173294 2.4025909090909097 3.783728360262784 2.388954545454546 Q 3.7557738148082382 2.3753181818181823 3.738728360262784 2.3521363636363644 Q 3.7216829057173295 2.328954545454546 3.7216829057173295 2.299636363636364 Q 3.7216829057173295 2.2525909090909098 3.7598647238991476 2.2246363636363644 Q 3.7980465420809657 2.1966818181818186 3.859410178444602 2.1878181818181823 L 3.9610010875355113 2.1735000000000007 L 3.9610010875355113 2.153727272727273 Q 3.9610010875355113 2.1210000000000004 3.942251087535511 2.10259090909091 Q 3.923501087535511 2.084181818181819 3.8812283602627837 2.084181818181819 Q 3.851228360262784 2.084181818181819 3.832137451171875 2.096454545454546 Q 3.813046542080966 2.1087272727272732 3.8055465420809655 2.1278181818181823 Q 3.8014556329900566 2.138045454545455 3.791228360262784 2.138045454545455 L 3.7605465420809656 2.138045454545455 Q 3.7530465420809658 2.138045454545455 3.7492965420809656 2.133613636363637 Q 3.745546542080966 2.1291818181818187 3.745546542080966 2.123045454545455 Q 3.745546542080966 2.1128181818181826 3.753387451171875 2.0978181818181825 Q 3.761228360262784 2.0828181818181823 3.77759199662642 2.0685000000000007 Q 3.793955632990057 2.054181818181819 3.8195238148082384 2.044295454545455 Q 3.84509199662642 2.0344090909090915 3.881910178444602 2.0344090909090915 Q 3.922819269353693 2.0344090909090915 3.9507738148082385 2.0449772727272735 Q 3.978728360262784 2.055545454545455 3.9947510875355112 2.073272727272728 Q 4.010773814808238 2.0910000000000006 4.01793290571733 2.1135000000000006 Q 4.02509199662642 2.1360000000000006 4.02509199662642 2.1591818181818185 L 4.02509199662642 2.3800909090909097 Q 4.02509199662642 2.3869090909090915 4.020660178444602 2.3913409090909097 Q 4.016228360262784 2.395772727272728 4.009410178444602 2.395772727272728 L 3.978046542080966 2.395772727272728 Q 3.9705465420809656 2.395772727272728 3.9664556329900567 2.3913409090909097 Q 3.9623647238991477 2.3869090909090915 3.9623647238991477 2.3800909090909097 L 3.9623647238991477 2.350772727272728 Q 3.953501087535511 2.363045454545455 3.9385010875355113 2.374977272727273 Q 3.923501087535511 2.3869090909090915 3.9010010875355112 2.3947500000000006 Q 3.8785010875355113 2.4025909090909097 3.8457738148082385 2.4025909090909097 M 3.86009199662642 2.351454545454546 Q 3.8880465420809656 2.351454545454546 3.911228360262784 2.339522727272728 Q 3.934410178444602 2.3275909090909095 3.947705632990057 2.302363636363637 Q 3.9610010875355113 2.277136363636364 3.9610010875355113 2.238954545454546 L 3.9610010875355113 2.219863636363637 L 3.881910178444602 2.231454545454546 Q 3.8335010875355113 2.2382727272727276 3.8089556329900565 2.254295454545455 Q 3.784410178444602 2.2703181818181823 3.784410178444602 2.2948636363636368 Q 3.784410178444602 2.313954545454546 3.795660178444602 2.3265681818181823 Q 3.806910178444602 2.3391818181818187 3.824296542080966 2.3453181818181825 Q 3.841682905717329 2.351454545454546 3.86009199662642 2.351454545454546 M 4.139979691938921 2.395772727272728 Q 4.133161510120739 2.395772727272728 4.12872969193892 2.3913409090909097 Q 4.1242978737571026 2.3869090909090915 4.1242978737571026 2.3800909090909097 L 4.1242978737571026 2.0569090909090915 Q 4.1242978737571026 2.0500909090909096 4.12872969193892 2.0456590909090915 Q 4.133161510120739 2.0412272727272733 4.139979691938921 2.0412272727272733 L 4.1706615101207385 2.0412272727272733 Q 4.17747969193892 2.0412272727272733 4.181911510120739 2.0456590909090915 Q 4.186343328302557 2.0500909090909096 4.186343328302557 2.0569090909090915 L 4.186343328302557 2.080772727272728 Q 4.202025146484375 2.0596363636363644 4.225888782848012 2.047022727272728 Q 4.249752419211648 2.0344090909090915 4.283161510120738 2.0344090909090915 Q 4.360206964666193 2.0337272727272735 4.392252419211648 2.0971363636363645 Q 4.407934237393466 2.0685000000000007 4.437934237393466 2.051454545454546 Q 4.467934237393466 2.0344090909090915 4.506116055575284 2.0344090909090915 Q 4.54157060102983 2.0344090909090915 4.570547873757103 2.0507727272727276 Q 4.599525146484375 2.067136363636364 4.61622969193892 2.100204545454546 Q 4.632934237393465 2.133272727272728 4.632934237393465 2.183045454545455 L 4.632934237393465 2.3800909090909097 Q 4.632934237393465 2.3869090909090915 4.628502419211648 2.3913409090909097 Q 4.624070601029829 2.395772727272728 4.617252419211647 2.395772727272728 L 4.5852069646661935 2.395772727272728 Q 4.578388782848012 2.395772727272728 4.573956964666193 2.3913409090909097 Q 4.569525146484375 2.3869090909090915 4.569525146484375 2.3800909090909097 L 4.569525146484375 2.189181818181819 Q 4.569525146484375 2.1510000000000007 4.558616055575284 2.1291818181818187 Q 4.547706964666193 2.1073636363636368 4.529297873757102 2.0985000000000005 Q 4.510888782848012 2.089636363636364 4.489070601029829 2.089636363636364 Q 4.471343328302557 2.089636363636364 4.452934237393466 2.0985000000000005 Q 4.434525146484375 2.1073636363636368 4.422593328302557 2.1291818181818187 Q 4.410661510120739 2.1510000000000007 4.410661510120739 2.189181818181819 L 4.410661510120739 2.3800909090909097 Q 4.410661510120739 2.3869090909090915 4.40622969193892 2.3913409090909097 Q 4.401797873757102 2.395772727272728 4.394979691938921 2.395772727272728 L 4.362934237393466 2.395772727272728 Q 4.356116055575284 2.395772727272728 4.351684237393465 2.3913409090909097 Q 4.347252419211648 2.3869090909090915 4.347252419211648 2.3800909090909097 L 4.347252419211648 2.189181818181819 Q 4.347252419211648 2.1510000000000007 4.3356615101207385 2.1291818181818187 Q 4.324070601029829 2.1073636363636368 4.305661510120738 2.0985000000000005 Q 4.287252419211647 2.089636363636364 4.266797873757103 2.089636363636364 Q 4.249070601029829 2.089636363636364 4.230661510120739 2.0985000000000005 Q 4.212252419211648 2.1073636363636368 4.20032060102983 2.1291818181818187 Q 4.188388782848011 2.1510000000000007 4.188388782848011 2.188500000000001 L 4.188388782848011 2.3800909090909097 Q 4.188388782848011 2.3869090909090915 4.183956964666193 2.3913409090909097 Q 4.179525146484375 2.395772727272728 4.172706964666193 2.395772727272728 L 4.139979691938921 2.395772727272728 M 4.854168590198864 2.4025909090909097 Q 4.8159867720170455 2.4025909090909097 4.788714044744318 2.393045454545455 Q 4.761441317471591 2.3835000000000006 4.744395862926137 2.369863636363637 Q 4.727350408380682 2.3562272727272733 4.718827681107955 2.3425909090909096 Q 4.7103049538352275 2.328954545454546 4.709623135653409 2.3207727272727277 Q 4.7089413174715915 2.313272727272728 4.714395862926136 2.309181818181819 Q 4.719850408380682 2.3050909090909095 4.725304953835227 2.3050909090909095 L 4.755986772017046 2.3050909090909095 Q 4.759395862926136 2.3050909090909095 4.7617822265625005 2.3061136363636368 Q 4.764168590198864 2.3071363636363644 4.768259499289773 2.3119090909090914 Q 4.777123135653409 2.321454545454546 4.788032226562501 2.3310000000000004 Q 4.798941317471591 2.340545454545455 4.814964044744318 2.3466818181818185 Q 4.830986772017046 2.3528181818181824 4.854850408380682 2.3528181818181824 Q 4.88962313565341 2.3528181818181824 4.91212313565341 2.339522727272728 Q 4.93462313565341 2.3262272727272735 4.93462313565341 2.3003181818181826 Q 4.93462313565341 2.283272727272728 4.925418590198864 2.2730454545454553 Q 4.916214044744319 2.2628181818181825 4.892691317471591 2.254636363636364 Q 4.869168590198864 2.246454545454546 4.828259499289773 2.2375909090909096 Q 4.787350408380682 2.2280454545454553 4.763486772017045 2.2140681818181824 Q 4.739623135653409 2.2000909090909095 4.729395862926137 2.1806590909090913 Q 4.719168590198864 2.1612272727272734 4.719168590198864 2.1366818181818186 Q 4.719168590198864 2.111454545454546 4.7341685901988635 2.087931818181819 Q 4.749168590198864 2.0644090909090913 4.778145862926136 2.0494090909090916 Q 4.807123135653409 2.0344090909090915 4.850759499289773 2.0344090909090915 Q 4.886214044744318 2.0344090909090915 4.911441317471591 2.043272727272728 Q 4.936668590198864 2.052136363636364 4.953032226562501 2.0654318181818185 Q 4.969395862926136 2.0787272727272734 4.977577681107955 2.0916818181818186 Q 4.985759499289773 2.1046363636363643 4.986441317471591 2.1135000000000006 Q 4.987123135653409 2.1203181818181824 4.982350408380682 2.1247500000000006 Q 4.977577681107955 2.1291818181818187 4.971441317471591 2.1291818181818187 L 4.942804953835227 2.1291818181818187 Q 4.9380322265625 2.1291818181818187 4.934964044744318 2.1271363636363643 Q 4.931895862926137 2.12509090909091 4.929168590198864 2.122363636363637 Q 4.922350408380682 2.1135000000000006 4.913145862926137 2.1046363636363643 Q 4.903941317471591 2.095772727272728 4.8892822265625 2.0899772727272734 Q 4.874623135653409 2.084181818181819 4.850759499289773 2.084181818181819 Q 4.816668590198864 2.084181818181819 4.799623135653409 2.0985000000000005 Q 4.782577681107955 2.1128181818181826 4.782577681107955 2.134636363636364 Q 4.782577681107955 2.1475909090909098 4.790077681107955 2.1578181818181825 Q 4.7975776811079545 2.1680454545454553 4.818714044744318 2.176227272727273 Q 4.839850408380682 2.1844090909090914 4.881441317471591 2.193954545454546 Q 4.926441317471591 2.2028181818181825 4.952350408380682 2.2178181818181826 Q 4.978259499289773 2.2328181818181823 4.989168590198864 2.2525909090909098 Q 5.000077681107955 2.272363636363637 5.000077681107955 2.2982727272727277 Q 5.000077681107955 2.3269090909090915 4.9837140447443184 2.350772727272728 Q 4.967350408380682 2.3746363636363643 4.93462313565341 2.3886136363636368 Q 4.901895862926136 2.4025909090909097 4.854168590198864 2.4025909090909097 M 5.272808283025568 2.395772727272728 Q 5.2653082830255675 2.395772727272728 5.261217373934659 2.3913409090909097 Q 5.25712646484375 2.3869090909090915 5.25712646484375 2.3800909090909097 L 5.25712646484375 1.934181818181819 Q 5.25712646484375 1.927363636363637 5.261217373934659 1.922931818181819 Q 5.2653082830255675 1.9185000000000005 5.272808283025568 1.9185000000000005 L 5.308944646661931 1.9185000000000005 Q 5.316444646661931 1.9185000000000005 5.320535555752841 1.922931818181819 Q 5.32462646484375 1.927363636363637 5.32462646484375 1.934181818181819 L 5.32462646484375 2.3800909090909097 Q 5.32462646484375 2.3869090909090915 5.320535555752841 2.3913409090909097 Q 5.316444646661931 2.395772727272728 5.308944646661931 2.395772727272728 L 5.272808283025568 2.395772727272728 M 5.451110728870738 2.395772727272728 Q 5.444292547052556 2.395772727272728 5.4398607288707375 2.3913409090909097 Q 5.43542891068892 2.3869090909090915 5.43542891068892 2.3800909090909097 L 5.43542891068892 2.0569090909090915 Q 5.43542891068892 2.0500909090909096 5.4398607288707375 2.0456590909090915 Q 5.444292547052556 2.0412272727272733 5.451110728870738 2.0412272727272733 L 5.483156183416193 2.0412272727272733 Q 5.489974365234374 2.0412272727272733 5.494406183416192 2.0456590909090915 Q 5.498838001598011 2.0500909090909096 5.498838001598011 2.0569090909090915 L 5.498838001598011 2.0869090909090913 Q 5.516565274325283 2.0637272727272733 5.543497092507101 2.0490681818181824 Q 5.5704289106889195 2.0344090909090915 5.612701637961647 2.0344090909090915 Q 5.657019819779829 2.0344090909090915 5.6880425470525555 2.0538409090909098 Q 5.719065274325283 2.073272727272728 5.73508800159801 2.107704545454546 Q 5.751110728870738 2.1421363636363644 5.751110728870738 2.1878181818181823 L 5.751110728870738 2.3800909090909097 Q 5.751110728870738 2.3869090909090915 5.746678910688919 2.3913409090909097 Q 5.742247092507101 2.395772727272728 5.73542891068892 2.395772727272728 L 5.70133800159801 2.395772727272728 Q 5.694519819779829 2.395772727272728 5.69008800159801 2.3913409090909097 Q 5.685656183416192 2.3869090909090915 5.685656183416192 2.3800909090909097 L 5.685656183416192 2.1912272727272732 Q 5.685656183416192 2.1435000000000004 5.662474365234374 2.1165681818181823 Q 5.6392925470525554 2.089636363636364 5.5942925470525555 2.089636363636364 Q 5.5520198197798285 2.089636363636364 5.526451637961647 2.1165681818181823 Q 5.500883456143465 2.1435000000000004 5.500883456143465 2.1912272727272732 L 5.500883456143465 2.3800909090909097 Q 5.500883456143465 2.3869090909090915 5.496451637961647 2.3913409090909097 Q 5.492019819779829 2.395772727272728 5.485201637961647 2.395772727272728 L 5.451110728870738 2.395772727272728 M 5.98326915394176 2.395772727272728 Q 5.945087335759942 2.395772727272728 5.921223699396306 2.381113636363637 Q 5.897360063032669 2.366454545454546 5.886450972123578 2.339522727272728 Q 5.875541881214487 2.31259090909091 5.875541881214487 2.2757727272727277 L 5.875541881214487 2.095772727272728 L 5.8223600630326695 2.095772727272728 Q 5.815541881214488 2.095772727272728 5.811110063032669 2.09134090909091 Q 5.806678244850851 2.0869090909090913 5.806678244850851 2.0800909090909094 L 5.806678244850851 2.0569090909090915 Q 5.806678244850851 2.0500909090909096 5.811110063032669 2.0456590909090915 Q 5.815541881214488 2.0412272727272733 5.8223600630326695 2.0412272727272733 L 5.875541881214487 2.0412272727272733 L 5.875541881214487 1.927363636363637 Q 5.875541881214487 1.9205454545454552 5.879973699396306 1.916113636363637 Q 5.884405517578124 1.9116818181818187 5.891223699396305 1.9116818181818187 L 5.92326915394176 1.9116818181818187 Q 5.930087335759942 1.9116818181818187 5.93451915394176 1.916113636363637 Q 5.938950972123578 1.9205454545454552 5.938950972123578 1.927363636363637 L 5.938950972123578 2.0412272727272733 L 6.023496426669033 2.0412272727272733 Q 6.030996426669033 2.0412272727272733 6.0350873357599415 2.0456590909090915 Q 6.039178244850851 2.0500909090909096 6.039178244850851 2.0569090909090915 L 6.039178244850851 2.0800909090909094 Q 6.039178244850851 2.0869090909090913 6.0350873357599415 2.09134090909091 Q 6.030996426669033 2.095772727272728 6.023496426669033 2.095772727272728 L 5.938950972123578 2.095772727272728 L 5.938950972123578 2.271000000000001 Q 5.938950972123578 2.303045454545455 5.949860063032669 2.321454545454546 Q 5.96076915394176 2.339863636363637 5.9887236993963056 2.339863636363637 L 6.030314608487215 2.339863636363637 Q 6.037132790305397 2.339863636363637 6.0415646084872145 2.3442954545454553 Q 6.045996426669033 2.3487272727272734 6.045996426669033 2.3555454545454553 L 6.045996426669033 2.3800909090909097 Q 6.045996426669033 2.3869090909090915 6.0415646084872145 2.3913409090909097 Q 6.037132790305397 2.395772727272728 6.030314608487215 2.395772727272728 L 5.98326915394176 2.395772727272728 M 6.257694979580965 2.4025909090909097 Q 6.205876797762783 2.4025909090909097 6.171104070490056 2.382818181818182 Q 6.1363313432173285 2.363045454545455 6.1179222523082375 2.3279318181818187 Q 6.0995131613991465 2.2928181818181823 6.097467706853692 2.2478181818181824 Q 6.096785888671874 2.236227272727273 6.096785888671874 2.2181590909090914 Q 6.096785888671874 2.2000909090909095 6.097467706853692 2.189181818181819 Q 6.0995131613991465 2.1435000000000004 6.118263161399147 2.1087272727272732 Q 6.137013161399147 2.073954545454546 6.171785888671874 2.054181818181819 Q 6.206558615944601 2.0344090909090915 6.257694979580965 2.0344090909090915 Q 6.308831343217329 2.0344090909090915 6.343604070490056 2.054181818181819 Q 6.378376797762783 2.073954545454546 6.397126797762783 2.1087272727272732 Q 6.415876797762783 2.1435000000000004 6.417922252308237 2.189181818181819 Q 6.418604070490056 2.2000909090909095 6.418604070490056 2.2181590909090914 Q 6.418604070490056 2.236227272727273 6.417922252308237 2.2478181818181824 Q 6.415876797762783 2.2928181818181823 6.397467706853693 2.3279318181818187 Q 6.379058615944602 2.363045454545455 6.344285888671874 2.382818181818182 Q 6.309513161399146 2.4025909090909097 6.257694979580965 2.4025909090909097 M 6.257694979580965 2.3500909090909095 Q 6.299967706853693 2.3500909090909095 6.325194979580965 2.3231590909090913 Q 6.350422252308237 2.2962272727272732 6.352467706853692 2.2444090909090915 Q 6.35314952503551 2.2341818181818187 6.35314952503551 2.2185000000000006 Q 6.35314952503551 2.2028181818181825 6.352467706853692 2.1925909090909097 Q 6.350422252308237 2.140772727272728 6.325194979580965 2.11384090909091 Q 6.299967706853693 2.0869090909090913 6.257694979580965 2.0869090909090913 Q 6.215422252308238 2.0869090909090913 6.189854070490056 2.11384090909091 Q 6.164285888671874 2.140772727272728 6.162922252308237 2.1925909090909097 Q 6.16224043412642 2.2028181818181825 6.16224043412642 2.2185000000000006 Q 6.16224043412642 2.2341818181818187 6.162922252308237 2.2444090909090915 Q 6.164285888671874 2.2962272727272732 6.189854070490056 2.3231590909090913 Q 6.215422252308238 2.3500909090909095 6.257694979580965 2.3500909090909095 M 6.697447065873578 2.395772727272728 Q 6.689947065873578 2.395772727272728 6.685856156782669 2.3913409090909097 Q 6.68176524769176 2.3869090909090915 6.68176524769176 2.3800909090909097 L 6.68176524769176 1.934863636363637 Q 6.68176524769176 1.927363636363637 6.685856156782669 1.922931818181819 Q 6.689947065873578 1.9185000000000005 6.697447065873578 1.9185000000000005 L 6.863810702237214 1.9185000000000005 Q 6.940856156782669 1.9185000000000005 6.985856156782669 1.9546363636363642 Q 7.030856156782669 1.9907727272727278 7.030856156782669 2.061681818181819 Q 7.030856156782669 2.1141818181818186 7.0046061567826685 2.1472500000000005 Q 6.978356156782668 2.1803181818181825 6.9333561567826685 2.1932727272727277 L 7.038356156782669 2.3746363636363643 Q 7.040401611328123 2.3787272727272732 7.040401611328123 2.382136363636364 Q 7.040401611328123 2.3875909090909095 7.035969793146305 2.391681818181819 Q 7.031537974964487 2.395772727272728 7.026083429509941 2.395772727272728 L 6.993356156782669 2.395772727272728 Q 6.98176524769176 2.395772727272728 6.976310702237214 2.389636363636364 Q 6.970856156782669 2.3835000000000006 6.96676524769176 2.377363636363637 L 6.867901611328123 2.204181818181819 L 6.748583429509941 2.204181818181819 L 6.748583429509941 2.3800909090909097 Q 6.748583429509941 2.3869090909090915 6.744151611328124 2.3913409090909097 Q 6.739719793146305 2.395772727272728 6.732219793146305 2.395772727272728 L 6.697447065873578 2.395772727272728 M 6.748583429509941 2.1462272727272733 L 6.861083429509941 2.1462272727272733 Q 6.912219793146305 2.1462272727272733 6.937447065873578 2.1247500000000006 Q 6.96267433860085 2.103272727272728 6.96267433860085 2.061000000000001 Q 6.96267433860085 2.0194090909090914 6.937787974964487 1.9975909090909096 Q 6.912901611328123 1.975772727272728 6.861083429509941 1.975772727272728 L 6.748583429509941 1.975772727272728 L 6.748583429509941 2.1462272727272733 M 7.258275146484373 2.4025909090909097 Q 7.187366055575282 2.4025909090909097 7.1457751464843735 2.359295454545455 Q 7.104184237393464 2.3160000000000007 7.100093328302555 2.2410000000000005 Q 7.099411510120737 2.2321363636363643 7.099411510120737 2.2181590909090914 Q 7.099411510120737 2.204181818181819 7.100093328302555 2.195318181818182 Q 7.102820601029828 2.1469090909090913 7.122593328302555 2.110431818181819 Q 7.142366055575282 2.073954545454546 7.1767978737571 2.054181818181819 Q 7.211229691938919 2.0344090909090915 7.257593328302555 2.0344090909090915 Q 7.309411510120737 2.0344090909090915 7.344525146484373 2.0562272727272735 Q 7.3796387828480094 2.078045454545455 7.3980478737571005 2.118272727272728 Q 7.4164569646661915 2.1585000000000005 7.4164569646661915 2.2123636363636368 L 7.4164569646661915 2.223954545454546 Q 7.4164569646661915 2.231454545454546 7.412025146484373 2.235545454545455 Q 7.407593328302555 2.239636363636364 7.400775146484373 2.239636363636364 L 7.164866055575282 2.239636363636364 Q 7.164866055575282 2.2403181818181825 7.164866055575282 2.242363636363637 Q 7.164866055575282 2.2444090909090915 7.164866055575282 2.245772727272728 Q 7.166229691938919 2.2737272727272733 7.17713878284801 2.297931818181819 Q 7.1880478737571005 2.322136363636364 7.208843328302555 2.3371363636363642 Q 7.22963878284801 2.3521363636363644 7.257593328302555 2.3521363636363644 Q 7.282138782848009 2.3521363636363644 7.298502419211646 2.344636363636364 Q 7.3148660555752825 2.3371363636363642 7.325093328302555 2.3279318181818187 Q 7.335320601029828 2.318727272727273 7.338729691938918 2.313272727272728 Q 7.344866055575283 2.3050909090909095 7.348275146484373 2.3033863636363643 Q 7.351684237393464 2.3016818181818186 7.359184237393464 2.3016818181818186 L 7.392593328302555 2.3016818181818186 Q 7.398729691938919 2.3016818181818186 7.403161510120737 2.3054318181818187 Q 7.407593328302555 2.309181818181819 7.406911510120737 2.3160000000000007 Q 7.406229691938918 2.3262272727272735 7.396002419211646 2.3408863636363644 Q 7.385775146484373 2.3555454545454553 7.367025146484373 2.369863636363637 Q 7.348275146484373 2.3841818181818186 7.320661510120737 2.393386363636364 Q 7.2930478737571 2.4025909090909097 7.258275146484373 2.4025909090909097 M 7.164866055575282 2.1925909090909097 L 7.351684237393464 2.1925909090909097 L 7.351684237393464 2.1905454545454552 Q 7.351684237393464 2.159863636363637 7.340434237393464 2.1360000000000006 Q 7.329184237393465 2.112136363636364 7.308047873757101 2.0981590909090917 Q 7.286911510120737 2.084181818181819 7.257593328302555 2.084181818181819 Q 7.228275146484373 2.084181818181819 7.207479691938919 2.0981590909090917 Q 7.1866842373934645 2.112136363636364 7.175775146484373 2.1360000000000006 Q 7.164866055575282 2.159863636363637 7.164866055575282 2.1905454545454552 L 7.164866055575282 2.1925909090909097 M 7.598159845525567 2.4025909090909097 Q 7.564068936434658 2.4025909090909097 7.536114390980112 2.388954545454546 Q 7.508159845525567 2.3753181818181823 7.491114390980112 2.3521363636363644 Q 7.474068936434658 2.328954545454546 7.474068936434658 2.299636363636364 Q 7.474068936434658 2.2525909090909098 7.512250754616476 2.2246363636363644 Q 7.550432572798294 2.1966818181818186 7.6117962091619304 2.1878181818181823 L 7.7133871182528395 2.1735000000000007 L 7.7133871182528395 2.153727272727273 Q 7.7133871182528395 2.1210000000000004 7.69463711825284 2.10259090909091 Q 7.675887118252839 2.084181818181819 7.633614390980112 2.084181818181819 Q 7.603614390980112 2.084181818181819 7.584523481889203 2.096454545454546 Q 7.565432572798294 2.1087272727272732 7.557932572798294 2.1278181818181823 Q 7.553841663707385 2.138045454545455 7.543614390980112 2.138045454545455 L 7.512932572798294 2.138045454545455 Q 7.505432572798294 2.138045454545455 7.501682572798294 2.133613636363637 Q 7.497932572798294 2.1291818181818187 7.497932572798294 2.123045454545455 Q 7.497932572798294 2.1128181818181826 7.505773481889203 2.0978181818181825 Q 7.513614390980112 2.0828181818181823 7.529978027343748 2.0685000000000007 Q 7.546341663707385 2.054181818181819 7.571909845525567 2.044295454545455 Q 7.597478027343748 2.0344090909090915 7.63429620916193 2.0344090909090915 Q 7.675205300071021 2.0344090909090915 7.703159845525566 2.0449772727272735 Q 7.731114390980112 2.055545454545455 7.747137118252839 2.073272727272728 Q 7.763159845525567 2.0910000000000006 7.770318936434657 2.1135000000000006 Q 7.777478027343749 2.1360000000000006 7.777478027343749 2.1591818181818185 L 7.777478027343749 2.3800909090909097 Q 7.777478027343749 2.3869090909090915 7.77304620916193 2.3913409090909097 Q 7.768614390980112 2.395772727272728 7.76179620916193 2.395772727272728 L 7.730432572798294 2.395772727272728 Q 7.722932572798294 2.395772727272728 7.7188416637073844 2.3913409090909097 Q 7.7147507546164755 2.3869090909090915 7.7147507546164755 2.3800909090909097 L 7.7147507546164755 2.350772727272728 Q 7.705887118252839 2.363045454545455 7.6908871182528395 2.374977272727273 Q 7.675887118252839 2.3869090909090915 7.653387118252839 2.3947500000000006 Q 7.630887118252839 2.4025909090909097 7.598159845525567 2.4025909090909097 M 7.612478027343749 2.351454545454546 Q 7.640432572798294 2.351454545454546 7.663614390980112 2.339522727272728 Q 7.686796209161931 2.3275909090909095 7.700091663707385 2.302363636363637 Q 7.7133871182528395 2.277136363636364 7.7133871182528395 2.238954545454546 L 7.7133871182528395 2.219863636363637 L 7.63429620916193 2.231454545454546 Q 7.585887118252839 2.2382727272727276 7.561341663707385 2.254295454545455 Q 7.53679620916193 2.2703181818181823 7.53679620916193 2.2948636363636368 Q 7.53679620916193 2.313954545454546 7.548046209161931 2.3265681818181823 Q 7.55929620916193 2.3391818181818187 7.576682572798294 2.3453181818181825 Q 7.594068936434658 2.351454545454546 7.612478027343749 2.351454545454546 M 7.893047540838066 2.395772727272728 Q 7.886229359019884 2.395772727272728 7.8817975408380665 2.3913409090909097 Q 7.877365722656248 2.3869090909090915 7.877365722656248 2.3800909090909097 L 7.877365722656248 1.927363636363637 Q 7.877365722656248 1.9205454545454552 7.8817975408380665 1.916113636363637 Q 7.886229359019884 1.9116818181818187 7.893047540838066 1.9116818181818187 L 7.925092995383521 1.9116818181818187 Q 7.932592995383521 1.9116818181818187 7.93668390447443 1.916113636363637 Q 7.940774813565339 1.9205454545454552 7.940774813565339 1.927363636363637 L 7.940774813565339 2.3800909090909097 Q 7.940774813565339 2.3869090909090915 7.93668390447443 2.3913409090909097 Q 7.932592995383521 2.395772727272728 7.925092995383521 2.395772727272728 L 7.893047540838066 2.395772727272728 M 8.065882124467327 2.395772727272728 Q 8.059063942649146 2.395772727272728 8.054632124467329 2.3913409090909097 Q 8.05020030628551 2.3869090909090915 8.05020030628551 2.3800909090909097 L 8.05020030628551 2.0569090909090915 Q 8.05020030628551 2.0500909090909096 8.054632124467329 2.0456590909090915 Q 8.059063942649146 2.0412272727272733 8.065882124467327 2.0412272727272733 L 8.0986093971946 2.0412272727272733 Q 8.105427579012783 2.0412272727272733 8.109859397194601 2.0456590909090915 Q 8.114291215376419 2.0500909090909096 8.114291215376419 2.0569090909090915 L 8.114291215376419 2.3800909090909097 Q 8.114291215376419 2.3869090909090915 8.109859397194601 2.3913409090909097 Q 8.105427579012783 2.395772727272728 8.0986093971946 2.395772727272728 L 8.065882124467327 2.395772727272728 M 8.060427579012783 1.9750909090909097 Q 8.0536093971946 1.9750909090909097 8.049177579012783 1.9706590909090915 Q 8.044745760830965 1.9662272727272734 8.044745760830965 1.9594090909090915 L 8.044745760830965 1.9225909090909097 Q 8.044745760830965 1.9157727272727278 8.049177579012783 1.9110000000000005 Q 8.0536093971946 1.9062272727272733 8.060427579012783 1.9062272727272733 L 8.103382124467329 1.9062272727272733 Q 8.11020030628551 1.9062272727272733 8.114973033558236 1.9110000000000005 Q 8.119745760830964 1.9157727272727278 8.119745760830964 1.9225909090909097 L 8.119745760830964 1.9594090909090915 Q 8.119745760830964 1.9662272727272734 8.114973033558236 1.9706590909090915 Q 8.11020030628551 1.9750909090909097 8.103382124467329 1.9750909090909097 L 8.060427579012783 1.9750909090909097 M 8.354635120738635 2.395772727272728 Q 8.316453302556816 2.395772727272728 8.29258966619318 2.381113636363637 Q 8.268726029829544 2.366454545454546 8.257816938920453 2.339522727272728 Q 8.246907848011363 2.31259090909091 8.246907848011363 2.2757727272727277 L 8.246907848011363 2.095772727272728 L 8.193726029829543 2.095772727272728 Q 8.186907848011362 2.095772727272728 8.182476029829544 2.09134090909091 Q 8.178044211647725 2.0869090909090913 8.178044211647725 2.0800909090909094 L 8.178044211647725 2.0569090909090915 Q 8.178044211647725 2.0500909090909096 8.182476029829544 2.0456590909090915 Q 8.186907848011362 2.0412272727272733 8.193726029829543 2.0412272727272733 L 8.246907848011363 2.0412272727272733 L 8.246907848011363 1.927363636363637 Q 8.246907848011363 1.9205454545454552 8.25133966619318 1.916113636363637 Q 8.255771484374998 1.9116818181818187 8.26258966619318 1.9116818181818187 L 8.294635120738635 1.9116818181818187 Q 8.301453302556816 1.9116818181818187 8.305885120738635 1.916113636363637 Q 8.310316938920453 1.9205454545454552 8.310316938920453 1.927363636363637 L 8.310316938920453 2.0412272727272733 L 8.394862393465907 2.0412272727272733 Q 8.402362393465907 2.0412272727272733 8.406453302556816 2.0456590909090915 Q 8.410544211647725 2.0500909090909096 8.410544211647725 2.0569090909090915 L 8.410544211647725 2.0800909090909094 Q 8.410544211647725 2.0869090909090913 8.406453302556816 2.09134090909091 Q 8.402362393465907 2.095772727272728 8.394862393465907 2.095772727272728 L 8.310316938920453 2.095772727272728 L 8.310316938920453 2.271000000000001 Q 8.310316938920453 2.303045454545455 8.321226029829544 2.321454545454546 Q 8.332135120738634 2.339863636363637 8.36008966619318 2.339863636363637 L 8.40168057528409 2.339863636363637 Q 8.40849875710227 2.339863636363637 8.41293057528409 2.3442954545454553 Q 8.417362393465908 2.3487272727272734 8.417362393465908 2.3555454545454553 L 8.417362393465908 2.3800909090909097 Q 8.417362393465908 2.3869090909090915 8.41293057528409 2.3913409090909097 Q 8.40849875710227 2.395772727272728 8.40168057528409 2.395772727272728 L 8.354635120738635 2.395772727272728 M 8.545879128196022 2.5253181818181822 Q 8.540424582741476 2.5253181818181822 8.536333673650567 2.5212272727272733 Q 8.532242764559658 2.5171363636363644 8.532242764559658 2.5116818181818186 Q 8.532242764559658 2.508954545454546 8.532924582741476 2.506227272727273 Q 8.533606400923293 2.5035000000000007 8.535651855468748 2.4994090909090914 L 8.588151855468748 2.3746363636363643 L 8.457924582741477 2.067136363636364 Q 8.454515491832385 2.058954545454546 8.454515491832385 2.055545454545455 Q 8.454515491832385 2.0494090909090916 8.458606400923294 2.0453181818181823 Q 8.462697310014203 2.0412272727272733 8.468833673650566 2.0412272727272733 L 8.502242764559657 2.0412272727272733 Q 8.509742764559658 2.0412272727272733 8.513492764559658 2.0446363636363643 Q 8.517242764559658 2.048045454545455 8.518606400923295 2.0528181818181825 L 8.622242764559658 2.3010000000000006 L 8.728606400923294 2.0528181818181825 Q 8.730651855468748 2.048045454545455 8.734401855468748 2.0446363636363643 Q 8.738151855468749 2.0412272727272733 8.745651855468749 2.0412272727272733 L 8.777697310014203 2.0412272727272733 Q 8.783833673650566 2.0412272727272733 8.787924582741475 2.0453181818181823 Q 8.792015491832386 2.0494090909090916 8.792015491832386 2.054863636363637 Q 8.792015491832386 2.058272727272728 8.788606400923294 2.067136363636364 L 8.59497003728693 2.5137272727272735 Q 8.592924582741476 2.5185000000000004 8.589174582741476 2.5219090909090913 Q 8.585424582741476 2.5253181818181822 8.577924582741476 2.5253181818181822 L 8.545879128196022 2.5253181818181822" fill="#4e888f" fill-rule="nonzero"></path></g></g><defs><clipPath id="SvgjsClipPath1001"><path d=" M -2.8161908265683704 -0.2234692451972109 h 2.4161908265683705 v 2.8427112176671496 h -2.4161908265683705 Z"></path></clipPath><clipPath id="SvgjsClipPath100049880a59-c8f1-45b5-abc8-e1b8b989b617"><path d=" M -2.8161908265683704 -0.2234692451972109 L -0.3999999999999999 -0.2234692451972109 L -0.3999999999999999 2.619241972469939 L -2.8161908265683704 2.619241972469939 Z"></path></clipPath></defs></svg>